<svg xmlns="http://www.w3.org/2000/svg" viewBox="0 0 600 320" role="img" aria-label="A bar chart with no words: a thick frame around it, a grey background, heavy dark gridlines, a soft shadow offset behind each bar, and a legend box with one swatch.">
<style>svg{--ink:#f2f4f9;--panel:#ffffff;--scan:#e7ebf4;--phosphor:#2b52c9;--phosphor-dim:#6c86c9;--amber:#d40f28;--paper:#20263c;--paper-dim:#5a6274;--wire:#ccd4e3}</style>
<rect x="0" y="0" width="600" height="320" fill="var(--panel)"></rect>
<rect x="20.0" y="20.0" width="560.0" height="280.0" rx="0" fill="var(--scan)" stroke="var(--paper)" stroke-width="3"></rect>
<path d="M120.0 50.0 L120.0 266.0" stroke="var(--paper)" stroke-width="1.6" fill="none"></path>
<path d="M186.7 50.0 L186.7 266.0" stroke="var(--paper)" stroke-width="1.6" fill="none"></path>
<path d="M253.3 50.0 L253.3 266.0" stroke="var(--paper)" stroke-width="1.6" fill="none"></path>
<path d="M320.0 50.0 L320.0 266.0" stroke="var(--paper)" stroke-width="1.6" fill="none"></path>
<path d="M386.7 50.0 L386.7 266.0" stroke="var(--paper)" stroke-width="1.6" fill="none"></path>
<path d="M453.3 50.0 L453.3 266.0" stroke="var(--paper)" stroke-width="1.6" fill="none"></path>
<path d="M520.0 50.0 L520.0 266.0" stroke="var(--paper)" stroke-width="1.6" fill="none"></path>
<path d="M125.0 71.0 h366.2 v22.0 h-366.2 Z" fill="var(--paper-dim)" stroke="var(--paper-dim)" stroke-width="1.2" fill-opacity="0.5"></path>
<path d="M120.0 66.0 h366.2 v22.0 h-366.2 Z" fill="var(--phosphor-dim)" stroke="var(--phosphor)" stroke-width="1.2"></path>
<rect x="40.0" y="72.0" width="66.0" height="10.0" rx="2" fill="var(--wire)" stroke="var(--wire)" stroke-width="1"></rect>
<path d="M125.0 104.0 h343.1 v22.0 h-343.1 Z" fill="var(--paper-dim)" stroke="var(--paper-dim)" stroke-width="1.2" fill-opacity="0.5"></path>
<path d="M120.0 99.0 h343.1 v22.0 h-343.1 Z" fill="var(--phosphor-dim)" stroke="var(--phosphor)" stroke-width="1.2"></path>
<rect x="40.0" y="105.0" width="66.0" height="10.0" rx="2" fill="var(--wire)" stroke="var(--wire)" stroke-width="1"></rect>
<path d="M125.0 137.0 h312.0 v22.0 h-312.0 Z" fill="var(--paper-dim)" stroke="var(--paper-dim)" stroke-width="1.2" fill-opacity="0.5"></path>
<path d="M120.0 132.0 h312.0 v22.0 h-312.0 Z" fill="var(--phosphor-dim)" stroke="var(--phosphor)" stroke-width="1.2"></path>
<rect x="40.0" y="138.0" width="66.0" height="10.0" rx="2" fill="var(--wire)" stroke="var(--wire)" stroke-width="1"></rect>
<path d="M125.0 170.0 h264.9 v22.0 h-264.9 Z" fill="var(--paper-dim)" stroke="var(--paper-dim)" stroke-width="1.2" fill-opacity="0.5"></path>
<path d="M120.0 165.0 h264.9 v22.0 h-264.9 Z" fill="var(--phosphor-dim)" stroke="var(--phosphor)" stroke-width="1.2"></path>
<rect x="40.0" y="171.0" width="66.0" height="10.0" rx="2" fill="var(--wire)" stroke="var(--wire)" stroke-width="1"></rect>
<path d="M125.0 203.0 h243.6 v22.0 h-243.6 Z" fill="var(--paper-dim)" stroke="var(--paper-dim)" stroke-width="1.2" fill-opacity="0.5"></path>
<path d="M120.0 198.0 h243.6 v22.0 h-243.6 Z" fill="var(--phosphor-dim)" stroke="var(--phosphor)" stroke-width="1.2"></path>
<rect x="40.0" y="204.0" width="66.0" height="10.0" rx="2" fill="var(--wire)" stroke="var(--wire)" stroke-width="1"></rect>
<path d="M125.0 236.0 h212.4 v22.0 h-212.4 Z" fill="var(--paper-dim)" stroke="var(--paper-dim)" stroke-width="1.2" fill-opacity="0.5"></path>
<path d="M120.0 231.0 h212.4 v22.0 h-212.4 Z" fill="var(--phosphor-dim)" stroke="var(--phosphor)" stroke-width="1.2"></path>
<rect x="40.0" y="237.0" width="66.0" height="10.0" rx="2" fill="var(--wire)" stroke="var(--wire)" stroke-width="1"></rect>
<rect x="420.0" y="34.0" width="140.0" height="30.0" rx="2" fill="var(--panel)" stroke="var(--paper-dim)" stroke-width="1"></rect>
<path d="M430.0 42.0 h16.0 v14.0 h-16.0 Z" fill="var(--phosphor-dim)" stroke="var(--phosphor)" stroke-width="1.2"></path>
<rect x="454.0" y="44.0" width="90.0" height="10.0" rx="2" fill="var(--wire)" stroke="var(--wire)" stroke-width="1"></rect>
</svg>
