<svg xmlns="http://www.w3.org/2000/svg" viewBox="0 0 720 260" role="img" aria-label="A computer keyboard drawn from above with every key blank. The main block has a row of small keys along the top, a row of number-sized keys below it, three rows of letter-sized keys, and a bottom row with one very wide key in the middle. To the right of the main block sit four keys in an upside-down T, and further right again a block of smaller keys in four columns. No key carries any lettering.">
  <rect x="8" y="24" width="704" height="228" rx="8" fill="var(--panel)" stroke="var(--paper-dim)" stroke-width="1.5"></rect>
  <rect x="20" y="40" width="26" height="18" rx="3" fill="var(--scan)" stroke="var(--paper-dim)" stroke-width="1.2"></rect>
  <rect x="58" y="40" width="26" height="18" rx="3" fill="var(--scan)" stroke="var(--paper-dim)" stroke-width="1.2"></rect>
  <rect x="88" y="40" width="26" height="18" rx="3" fill="var(--scan)" stroke="var(--paper-dim)" stroke-width="1.2"></rect>
  <rect x="118" y="40" width="26" height="18" rx="3" fill="var(--scan)" stroke="var(--paper-dim)" stroke-width="1.2"></rect>
  <rect x="148" y="40" width="26" height="18" rx="3" fill="var(--scan)" stroke="var(--paper-dim)" stroke-width="1.2"></rect>
  <rect x="186" y="40" width="26" height="18" rx="3" fill="var(--scan)" stroke="var(--paper-dim)" stroke-width="1.2"></rect>
  <rect x="216" y="40" width="26" height="18" rx="3" fill="var(--scan)" stroke="var(--paper-dim)" stroke-width="1.2"></rect>
  <rect x="246" y="40" width="26" height="18" rx="3" fill="var(--scan)" stroke="var(--paper-dim)" stroke-width="1.2"></rect>
  <rect x="276" y="40" width="26" height="18" rx="3" fill="var(--scan)" stroke="var(--paper-dim)" stroke-width="1.2"></rect>
  <rect x="314" y="40" width="26" height="18" rx="3" fill="var(--scan)" stroke="var(--paper-dim)" stroke-width="1.2"></rect>
  <rect x="344" y="40" width="26" height="18" rx="3" fill="var(--scan)" stroke="var(--paper-dim)" stroke-width="1.2"></rect>
  <rect x="374" y="40" width="26" height="18" rx="3" fill="var(--scan)" stroke="var(--paper-dim)" stroke-width="1.2"></rect>
  <rect x="404" y="40" width="26" height="18" rx="3" fill="var(--scan)" stroke="var(--paper-dim)" stroke-width="1.2"></rect>
  <rect x="20" y="72" width="26" height="26" rx="3" fill="var(--scan)" stroke="var(--paper-dim)" stroke-width="1.2"></rect><rect x="50" y="72" width="26" height="26" rx="3" fill="var(--scan)" stroke="var(--paper-dim)" stroke-width="1.2"></rect><rect x="80" y="72" width="26" height="26" rx="3" fill="var(--scan)" stroke="var(--paper-dim)" stroke-width="1.2"></rect><rect x="110" y="72" width="26" height="26" rx="3" fill="var(--scan)" stroke="var(--paper-dim)" stroke-width="1.2"></rect><rect x="140" y="72" width="26" height="26" rx="3" fill="var(--scan)" stroke="var(--paper-dim)" stroke-width="1.2"></rect><rect x="170" y="72" width="26" height="26" rx="3" fill="var(--scan)" stroke="var(--paper-dim)" stroke-width="1.2"></rect><rect x="200" y="72" width="26" height="26" rx="3" fill="var(--scan)" stroke="var(--paper-dim)" stroke-width="1.2"></rect><rect x="230" y="72" width="26" height="26" rx="3" fill="var(--scan)" stroke="var(--paper-dim)" stroke-width="1.2"></rect><rect x="260" y="72" width="26" height="26" rx="3" fill="var(--scan)" stroke="var(--paper-dim)" stroke-width="1.2"></rect><rect x="290" y="72" width="26" height="26" rx="3" fill="var(--scan)" stroke="var(--paper-dim)" stroke-width="1.2"></rect><rect x="320" y="72" width="26" height="26" rx="3" fill="var(--scan)" stroke="var(--paper-dim)" stroke-width="1.2"></rect><rect x="350" y="72" width="26" height="26" rx="3" fill="var(--scan)" stroke="var(--paper-dim)" stroke-width="1.2"></rect><rect x="380" y="72" width="26" height="26" rx="3" fill="var(--scan)" stroke="var(--paper-dim)" stroke-width="1.2"></rect>
  <rect x="410" y="72" width="52" height="26" rx="3" fill="var(--scan)" stroke="var(--paper-dim)" stroke-width="1.2"></rect>
  <rect x="20" y="104" width="42" height="26" rx="3" fill="var(--scan)" stroke="var(--paper-dim)" stroke-width="1.2"></rect>
  <rect x="66" y="104" width="26" height="26" rx="3" fill="var(--scan)" stroke="var(--paper-dim)" stroke-width="1.2"></rect><rect x="96" y="104" width="26" height="26" rx="3" fill="var(--scan)" stroke="var(--paper-dim)" stroke-width="1.2"></rect><rect x="126" y="104" width="26" height="26" rx="3" fill="var(--scan)" stroke="var(--paper-dim)" stroke-width="1.2"></rect><rect x="156" y="104" width="26" height="26" rx="3" fill="var(--scan)" stroke="var(--paper-dim)" stroke-width="1.2"></rect><rect x="186" y="104" width="26" height="26" rx="3" fill="var(--scan)" stroke="var(--paper-dim)" stroke-width="1.2"></rect><rect x="216" y="104" width="26" height="26" rx="3" fill="var(--scan)" stroke="var(--paper-dim)" stroke-width="1.2"></rect><rect x="246" y="104" width="26" height="26" rx="3" fill="var(--scan)" stroke="var(--paper-dim)" stroke-width="1.2"></rect><rect x="276" y="104" width="26" height="26" rx="3" fill="var(--scan)" stroke="var(--paper-dim)" stroke-width="1.2"></rect><rect x="306" y="104" width="26" height="26" rx="3" fill="var(--scan)" stroke="var(--paper-dim)" stroke-width="1.2"></rect><rect x="336" y="104" width="26" height="26" rx="3" fill="var(--scan)" stroke="var(--paper-dim)" stroke-width="1.2"></rect><rect x="366" y="104" width="26" height="26" rx="3" fill="var(--scan)" stroke="var(--paper-dim)" stroke-width="1.2"></rect><rect x="396" y="104" width="26" height="26" rx="3" fill="var(--scan)" stroke="var(--paper-dim)" stroke-width="1.2"></rect>
  <rect x="428" y="104" width="34" height="58" rx="3" fill="var(--scan)" stroke="var(--paper-dim)" stroke-width="1.2"></rect>
  <rect x="20" y="136" width="44" height="26" rx="3" fill="var(--scan)" stroke="var(--paper-dim)" stroke-width="1.2"></rect>
  <rect x="68" y="136" width="26" height="26" rx="3" fill="var(--scan)" stroke="var(--paper-dim)" stroke-width="1.2"></rect><rect x="98" y="136" width="26" height="26" rx="3" fill="var(--scan)" stroke="var(--paper-dim)" stroke-width="1.2"></rect><rect x="128" y="136" width="26" height="26" rx="3" fill="var(--scan)" stroke="var(--paper-dim)" stroke-width="1.2"></rect><rect x="158" y="136" width="26" height="26" rx="3" fill="var(--scan)" stroke="var(--paper-dim)" stroke-width="1.2"></rect><rect x="188" y="136" width="26" height="26" rx="3" fill="var(--scan)" stroke="var(--paper-dim)" stroke-width="1.2"></rect><rect x="218" y="136" width="26" height="26" rx="3" fill="var(--scan)" stroke="var(--paper-dim)" stroke-width="1.2"></rect><rect x="248" y="136" width="26" height="26" rx="3" fill="var(--scan)" stroke="var(--paper-dim)" stroke-width="1.2"></rect><rect x="278" y="136" width="26" height="26" rx="3" fill="var(--scan)" stroke="var(--paper-dim)" stroke-width="1.2"></rect><rect x="308" y="136" width="26" height="26" rx="3" fill="var(--scan)" stroke="var(--paper-dim)" stroke-width="1.2"></rect><rect x="338" y="136" width="26" height="26" rx="3" fill="var(--scan)" stroke="var(--paper-dim)" stroke-width="1.2"></rect><rect x="368" y="136" width="26" height="26" rx="3" fill="var(--scan)" stroke="var(--paper-dim)" stroke-width="1.2"></rect><rect x="398" y="136" width="26" height="26" rx="3" fill="var(--scan)" stroke="var(--paper-dim)" stroke-width="1.2"></rect>
  <rect x="20" y="168" width="62" height="26" rx="3" fill="var(--scan)" stroke="var(--paper-dim)" stroke-width="1.2"></rect>
  <rect x="86" y="168" width="26" height="26" rx="3" fill="var(--scan)" stroke="var(--paper-dim)" stroke-width="1.2"></rect><rect x="116" y="168" width="26" height="26" rx="3" fill="var(--scan)" stroke="var(--paper-dim)" stroke-width="1.2"></rect><rect x="146" y="168" width="26" height="26" rx="3" fill="var(--scan)" stroke="var(--paper-dim)" stroke-width="1.2"></rect><rect x="176" y="168" width="26" height="26" rx="3" fill="var(--scan)" stroke="var(--paper-dim)" stroke-width="1.2"></rect><rect x="206" y="168" width="26" height="26" rx="3" fill="var(--scan)" stroke="var(--paper-dim)" stroke-width="1.2"></rect><rect x="236" y="168" width="26" height="26" rx="3" fill="var(--scan)" stroke="var(--paper-dim)" stroke-width="1.2"></rect><rect x="266" y="168" width="26" height="26" rx="3" fill="var(--scan)" stroke="var(--paper-dim)" stroke-width="1.2"></rect><rect x="296" y="168" width="26" height="26" rx="3" fill="var(--scan)" stroke="var(--paper-dim)" stroke-width="1.2"></rect><rect x="326" y="168" width="26" height="26" rx="3" fill="var(--scan)" stroke="var(--paper-dim)" stroke-width="1.2"></rect><rect x="356" y="168" width="26" height="26" rx="3" fill="var(--scan)" stroke="var(--paper-dim)" stroke-width="1.2"></rect><rect x="386" y="168" width="26" height="26" rx="3" fill="var(--scan)" stroke="var(--paper-dim)" stroke-width="1.2"></rect>
  <rect x="416" y="168" width="46" height="26" rx="3" fill="var(--scan)" stroke="var(--paper-dim)" stroke-width="1.2"></rect>
  <rect x="20" y="200" width="36" height="26" rx="3" fill="var(--scan)" stroke="var(--paper-dim)" stroke-width="1.2"></rect>
  <rect x="60" y="200" width="30" height="26" rx="3" fill="var(--scan)" stroke="var(--paper-dim)" stroke-width="1.2"></rect>
  <rect x="94" y="200" width="30" height="26" rx="3" fill="var(--scan)" stroke="var(--paper-dim)" stroke-width="1.2"></rect>
  <rect x="128" y="200" width="208" height="26" rx="3" fill="var(--scan)" stroke="var(--paper-dim)" stroke-width="1.2"></rect>
  <rect x="340" y="200" width="30" height="26" rx="3" fill="var(--scan)" stroke="var(--paper-dim)" stroke-width="1.2"></rect>
  <rect x="374" y="200" width="30" height="26" rx="3" fill="var(--scan)" stroke="var(--paper-dim)" stroke-width="1.2"></rect>
  <rect x="408" y="200" width="54" height="26" rx="3" fill="var(--scan)" stroke="var(--paper-dim)" stroke-width="1.2"></rect>
  <rect x="510" y="168" width="26" height="26" rx="3" fill="var(--scan)" stroke="var(--paper-dim)" stroke-width="1.2"></rect>
  <rect x="478" y="200" width="26" height="26" rx="3" fill="var(--scan)" stroke="var(--paper-dim)" stroke-width="1.2"></rect><rect x="510" y="200" width="26" height="26" rx="3" fill="var(--scan)" stroke="var(--paper-dim)" stroke-width="1.2"></rect><rect x="542" y="200" width="26" height="26" rx="3" fill="var(--scan)" stroke="var(--paper-dim)" stroke-width="1.2"></rect>
  <rect x="584" y="72" width="24" height="22" rx="3" fill="var(--scan)" stroke="var(--paper-dim)" stroke-width="1.2"></rect><rect x="612" y="72" width="24" height="22" rx="3" fill="var(--scan)" stroke="var(--paper-dim)" stroke-width="1.2"></rect><rect x="640" y="72" width="24" height="22" rx="3" fill="var(--scan)" stroke="var(--paper-dim)" stroke-width="1.2"></rect><rect x="668" y="72" width="24" height="22" rx="3" fill="var(--scan)" stroke="var(--paper-dim)" stroke-width="1.2"></rect>
  <rect x="584" y="98" width="24" height="22" rx="3" fill="var(--scan)" stroke="var(--paper-dim)" stroke-width="1.2"></rect><rect x="612" y="98" width="24" height="22" rx="3" fill="var(--scan)" stroke="var(--paper-dim)" stroke-width="1.2"></rect><rect x="640" y="98" width="24" height="22" rx="3" fill="var(--scan)" stroke="var(--paper-dim)" stroke-width="1.2"></rect>
  <rect x="584" y="124" width="24" height="22" rx="3" fill="var(--scan)" stroke="var(--paper-dim)" stroke-width="1.2"></rect><rect x="612" y="124" width="24" height="22" rx="3" fill="var(--scan)" stroke="var(--paper-dim)" stroke-width="1.2"></rect><rect x="640" y="124" width="24" height="22" rx="3" fill="var(--scan)" stroke="var(--paper-dim)" stroke-width="1.2"></rect>
  <rect x="584" y="150" width="24" height="22" rx="3" fill="var(--scan)" stroke="var(--paper-dim)" stroke-width="1.2"></rect><rect x="612" y="150" width="24" height="22" rx="3" fill="var(--scan)" stroke="var(--paper-dim)" stroke-width="1.2"></rect><rect x="640" y="150" width="24" height="22" rx="3" fill="var(--scan)" stroke="var(--paper-dim)" stroke-width="1.2"></rect>
  <rect x="668" y="98" width="24" height="48" rx="3" fill="var(--scan)" stroke="var(--paper-dim)" stroke-width="1.2"></rect>
  <rect x="668" y="150" width="24" height="48" rx="3" fill="var(--scan)" stroke="var(--paper-dim)" stroke-width="1.2"></rect>
  <rect x="584" y="176" width="52" height="22" rx="3" fill="var(--scan)" stroke="var(--paper-dim)" stroke-width="1.2"></rect>
  <rect x="640" y="176" width="24" height="22" rx="3" fill="var(--scan)" stroke="var(--paper-dim)" stroke-width="1.2"></rect>
</svg>
