<svg xmlns="http://www.w3.org/2000/svg" viewBox="0 0 720 300" role="img" aria-label="The back of a home router, drawn with no lettering anywhere. Two thin rods rise from the top corners of a long case. Along the lower half are one rectangular socket standing on its own at the left, then a group of four identical sockets together, then a flat socket with a bar inside it, a very small round hole, and a larger round socket with a pin in the middle. Two blocks of ventilation slots run across the upper half.">
  <path d="M150 150 L124 40" fill="none" stroke="var(--paper-dim)" stroke-width="9" stroke-linecap="round"></path>
  <path d="M570 150 L596 40" fill="none" stroke="var(--paper-dim)" stroke-width="9" stroke-linecap="round"></path>
  <rect x="40" y="110" width="640" height="150" rx="8" fill="var(--panel)" stroke="var(--paper-dim)" stroke-width="1.5"></rect>
  <rect x="90" y="165" width="40" height="35" rx="2" fill="var(--ink)" stroke="var(--paper-dim)" stroke-width="1.4"></rect>
  <rect x="103" y="157" width="14" height="9" rx="2" fill="var(--ink)" stroke="var(--paper-dim)" stroke-width="1.4"></rect>
  <rect x="200" y="165" width="40" height="35" rx="2" fill="var(--ink)" stroke="var(--paper-dim)" stroke-width="1.4"></rect>
  <rect x="213" y="157" width="14" height="9" rx="2" fill="var(--ink)" stroke="var(--paper-dim)" stroke-width="1.4"></rect>
  <rect x="250" y="165" width="40" height="35" rx="2" fill="var(--ink)" stroke="var(--paper-dim)" stroke-width="1.4"></rect>
  <rect x="263" y="157" width="14" height="9" rx="2" fill="var(--ink)" stroke="var(--paper-dim)" stroke-width="1.4"></rect>
  <rect x="300" y="165" width="40" height="35" rx="2" fill="var(--ink)" stroke="var(--paper-dim)" stroke-width="1.4"></rect>
  <rect x="313" y="157" width="14" height="9" rx="2" fill="var(--ink)" stroke="var(--paper-dim)" stroke-width="1.4"></rect>
  <rect x="350" y="165" width="40" height="35" rx="2" fill="var(--ink)" stroke="var(--paper-dim)" stroke-width="1.4"></rect>
  <rect x="363" y="157" width="14" height="9" rx="2" fill="var(--ink)" stroke="var(--paper-dim)" stroke-width="1.4"></rect>
  <rect x="440" y="172" width="44" height="20" rx="2" fill="var(--ink)" stroke="var(--paper-dim)" stroke-width="1.4"></rect>
  <rect x="444" y="182" width="36" height="6" rx="1" fill="var(--scan)" stroke="var(--paper-dim)" stroke-width="1"></rect>
  <circle cx="530" cy="182" r="6" fill="var(--ink)" stroke="var(--paper-dim)" stroke-width="1.4"></circle>
  <circle cx="630" cy="182" r="17" fill="var(--ink)" stroke="var(--paper-dim)" stroke-width="1.4"></circle>
  <circle cx="630" cy="182" r="6" fill="var(--scan)" stroke="var(--paper-dim)" stroke-width="1"></circle>
  <rect x="90" y="122" width="12" height="5" rx="2" fill="var(--scan)" stroke="var(--wire)" stroke-width="1"></rect>
  <rect x="112" y="122" width="12" height="5" rx="2" fill="var(--scan)" stroke="var(--wire)" stroke-width="1"></rect>
  <rect x="134" y="122" width="12" height="5" rx="2" fill="var(--scan)" stroke="var(--wire)" stroke-width="1"></rect>
  <rect x="156" y="122" width="12" height="5" rx="2" fill="var(--scan)" stroke="var(--wire)" stroke-width="1"></rect>
  <rect x="178" y="122" width="12" height="5" rx="2" fill="var(--scan)" stroke="var(--wire)" stroke-width="1"></rect>
  <rect x="200" y="122" width="12" height="5" rx="2" fill="var(--scan)" stroke="var(--wire)" stroke-width="1"></rect>
  <rect x="90" y="134" width="12" height="5" rx="2" fill="var(--scan)" stroke="var(--wire)" stroke-width="1"></rect>
  <rect x="112" y="134" width="12" height="5" rx="2" fill="var(--scan)" stroke="var(--wire)" stroke-width="1"></rect>
  <rect x="134" y="134" width="12" height="5" rx="2" fill="var(--scan)" stroke="var(--wire)" stroke-width="1"></rect>
  <rect x="156" y="134" width="12" height="5" rx="2" fill="var(--scan)" stroke="var(--wire)" stroke-width="1"></rect>
  <rect x="178" y="134" width="12" height="5" rx="2" fill="var(--scan)" stroke="var(--wire)" stroke-width="1"></rect>
  <rect x="200" y="134" width="12" height="5" rx="2" fill="var(--scan)" stroke="var(--wire)" stroke-width="1"></rect>
  <rect x="420" y="122" width="12" height="5" rx="2" fill="var(--scan)" stroke="var(--wire)" stroke-width="1"></rect>
  <rect x="442" y="122" width="12" height="5" rx="2" fill="var(--scan)" stroke="var(--wire)" stroke-width="1"></rect>
  <rect x="464" y="122" width="12" height="5" rx="2" fill="var(--scan)" stroke="var(--wire)" stroke-width="1"></rect>
  <rect x="486" y="122" width="12" height="5" rx="2" fill="var(--scan)" stroke="var(--wire)" stroke-width="1"></rect>
  <rect x="508" y="122" width="12" height="5" rx="2" fill="var(--scan)" stroke="var(--wire)" stroke-width="1"></rect>
  <rect x="530" y="122" width="12" height="5" rx="2" fill="var(--scan)" stroke="var(--wire)" stroke-width="1"></rect>
  <rect x="420" y="134" width="12" height="5" rx="2" fill="var(--scan)" stroke="var(--wire)" stroke-width="1"></rect>
  <rect x="442" y="134" width="12" height="5" rx="2" fill="var(--scan)" stroke="var(--wire)" stroke-width="1"></rect>
  <rect x="464" y="134" width="12" height="5" rx="2" fill="var(--scan)" stroke="var(--wire)" stroke-width="1"></rect>
  <rect x="486" y="134" width="12" height="5" rx="2" fill="var(--scan)" stroke="var(--wire)" stroke-width="1"></rect>
  <rect x="508" y="134" width="12" height="5" rx="2" fill="var(--scan)" stroke="var(--wire)" stroke-width="1"></rect>
  <rect x="530" y="134" width="12" height="5" rx="2" fill="var(--scan)" stroke="var(--wire)" stroke-width="1"></rect>
</svg>
